HIERARCHY
ROOT Hips
{
	OFFSET 0.00000 0.00000 0.00000
	CHANNELS 6 Xposition Yposition Zposition Zrotation Yrotation Xrotation 
	JOINT LHipJoint
	{
		OFFSET 0 0 0
		CHANNELS 3 Zrotation Yrotation Xrotation
		JOINT LeftHip
		{
			OFFSET 1.86795 -1.59681 0.65681
			CHANNELS 3 Zrotation Yrotation Xrotation
			JOINT LeftKnee
			{
				OFFSET 2.30491 -6.33268 0.00000
				CHANNELS 3 Zrotation Yrotation Xrotation
				JOINT LeftAnkle
				{
					OFFSET 2.46780 -6.78022 0.00000
					CHANNELS 3 Zrotation Yrotation Xrotation
					JOINT LeftToe
					{
						OFFSET 0.07897 -0.21698 1.59652
						CHANNELS 3 Zrotation Yrotation Xrotation
						End Site
						{
							OFFSET 0.00000 -0.00000 0.82310
						}
					}
				}
			}
		}
	}
	JOINT RHipJoint
	{
		OFFSET 0 0 0
		CHANNELS 3 Zrotation Yrotation Xrotation
		JOINT RightHip
		{
			OFFSET -1.93650 -1.59681 0.65681
			CHANNELS 3 Zrotation Yrotation Xrotation
			JOINT RightKnee
			{
				OFFSET -2.29410 -6.30299 0.00000
				CHANNELS 3 Zrotation Yrotation Xrotation
				JOINT RightAnkle
				{
					OFFSET -2.48738 -6.83403 0.00000
					CHANNELS 3 Zrotation Yrotation Xrotation
					JOINT RightToe
					{
						OFFSET -0.08699 -0.23899 1.89395
						CHANNELS 3 Zrotation Yrotation Xrotation
						End Site
						{
							OFFSET -0.00000 -0.00000 0.96904
						}
					}
				}
			}
		}
	}
	JOINT lowerback
	{
		OFFSET 0 0 0
		CHANNELS 3 Zrotation Yrotation Xrotation
		JOINT Chest
		{
			OFFSET 0.03629 1.99740 -0.07548
			CHANNELS 3 Zrotation Yrotation Xrotation
			JOINT Chest2
			{
				OFFSET 0.03970 1.94298 0.17218
				CHANNELS 3 Zrotation Yrotation Xrotation
				JOINT lowerneck
				{
					OFFSET 0 0 0
					CHANNELS 3 Zrotation Yrotation Xrotation
					JOINT Neck
					{
						OFFSET -0.05054 1.79469 0.04241
						CHANNELS 3 Zrotation Yrotation Xrotation
						JOINT Head
						{
							OFFSET 0.05195 1.78475 -0.22133
							CHANNELS 3 Zrotation Yrotation Xrotation
							End Site
							{
								OFFSET 0.02420 1.80711 -0.07950
							}
						}
					}
				}
				JOINT LeftCollar
				{
					OFFSET 0 0 0
					CHANNELS 3 Zrotation Yrotation Xrotation
					JOINT LeftShoulder
					{
						OFFSET 2.92134 1.19850 0.36056
CHANNELS 3 Zrotation Xrotation Yrotation
						JOINT LeftElbow
						{
OFFSET 0 -4.841370 0.000000
CHANNELS 3 Zrotation Xrotation Yrotation
							JOINT LeftWrist
							{
OFFSET 0 -3.245200 -0.000000
CHANNELS 3 Zrotation Xrotation Yrotation
								JOINT lhand
								{
									OFFSET 0 0 0
CHANNELS 3 Zrotation Xrotation Yrotation
									JOINT LFingers
									{
OFFSET 0 -0.521220 0.000000
CHANNELS 3 Zrotation Xrotation Yrotation
										End Site
										{
OFFSET 0 -0.420220 0.000000
										}
									}
								}
								JOINT LThumb
								{
OFFSET 0 0.000000 0.000000
CHANNELS 3 Zrotation Xrotation Yrotation
									End Site
									{
OFFSET 0 -0.426640 0.426640
									}
								}
							}
						}
					}
				}
				JOINT RightCollar
				{
					OFFSET 0 0 0
					CHANNELS 3 Zrotation Yrotation Xrotation
					JOINT RightShoulder
					{
						OFFSET -2.84327 1.20795 0.50191
CHANNELS 3 Zrotation Xrotation Yrotation
						JOINT RightElbow
						{
OFFSET 0 -4.722840 0.000000
CHANNELS 3 Zrotation Xrotation Yrotation
							JOINT RightWrist
							{
OFFSET 0 -3.234590 0.000000
CHANNELS 3 Zrotation Xrotation Yrotation
								JOINT rhand
								{
									OFFSET 0 0 0
CHANNELS 3 Zrotation Xrotation Yrotation
									JOINT RFingers
									{
OFFSET 0 -0.307420 0.000000
CHANNELS 3 Zrotation Xrotation Yrotation
										End Site
										{
OFFSET 0 -0.247850 0.000000
										}
									}
								}
								JOINT RThumb
								{
OFFSET 0 0.000000 0.000000
CHANNELS 3 Zrotation Xrotation Yrotation
									End Site
									{
OFFSET 0 -0.251630 0.251630
									}
								}
							}
						}
					}
				}
			}
		}
	}
}
MOTION
Frames: 6
Frame Time: 0.008333333333333333
4.244600 17.059500 32.586900 175.411000 -49.199200 -165.008000 0.000000 0.000000 0.000000 -27.281900 -23.253800 -9.597800 1.021200 6.428900 18.034100 -0.157500 13.006700 -16.386600 0.426700 4.192400 11.618400 0.000000 0.000000 0.000000 16.980000 4.634800 -22.761400 -10.616000 -17.742000 61.528100 0.897100 -17.368900 -0.617500 -0.156600 2.549800 -7.027600 -0.400900 1.604800 -5.860000 0.102500 1.869000 -5.861100 0.397400 0.829000 -2.777000 -7.570300 -9.419000 -2.140900 11.662100 -16.366700 20.743400 3.610600 -7.992000 8.360700 -0.000000 0.000000 0.000000 2.074600 17.478300 -12.045300 22.466000 -33.499700 6.841300 1.507600 28.021300 -43.284400 0.000000 0.000000 0.000000 -7.125000 0.000000 0.000000 -48.891300 67.060500 28.650900 -0.000000 0.000000 0.000000 -5.386100 18.781300 24.244700 -18.091100 -28.273700 -4.592300 -16.523000 -13.280000 -28.347500 0.000000 0.000000 0.000000 7.125000 0.000000 -0.000000 8.211400 0.874600 8.169900
3.793714 16.923510 32.358623 175.489259 -51.898166 -164.554860 0.000000 0.000000 0.000000 -27.851824 -25.660328 -9.517136 1.525034 7.797428 22.100542 0.262127 11.846945 -20.019527 0.512490 4.588520 12.738484 0.000000 0.000000 0.000000 18.394929 9.971372 -31.908395 -10.755965 -17.813284 61.986108 0.611078 -15.218059 -12.739605 -0.860282 -5.894124 16.483571 -1.187859 0.761003 -4.604071 0.627941 0.806872 -5.705351 1.331086 0.355080 -3.326587 -7.329105 -9.474811 -2.282618 12.671188 -16.387703 19.413951 3.905221 -7.911297 8.012152 0.000000 0.000000 0.000000 2.336601 15.955565 -11.826034 22.642853 -33.694293 6.939890 -15.440644 18.871678 -48.793728 0.000000 0.000000 0.000000 -7.125000 0.000000 0.000000 -72.917749 64.698275 44.723775 0.000000 0.000000 0.000000 -5.759364 17.957686 25.652090 -19.622067 -30.184224 -5.340070 -17.617383 -14.849214 -29.638007 0.000000 0.000000 0.000000 7.125000 0.000000 0.000000 7.700635 -0.610794 7.852303
3.222026 16.900778 31.993316 173.868279 -54.482579 -162.155526 0.000000 0.000000 0.000000 -29.645989 -26.404479 -6.477812 1.336563 7.319057 20.664760 0.373738 12.083247 -21.448486 0.468935 4.391928 12.181985 0.000000 0.000000 0.000000 17.161167 14.949583 -35.776565 -6.873424 -15.221055 48.388244 -0.275617 -12.388269 -20.780014 -4.280739 -12.425191 37.400216 -2.110263 0.070359 -5.380211 0.512977 -0.075518 -5.566753 1.713421 -0.060583 -2.723731 -7.435343 -9.993026 -1.585380 13.419623 -16.986443 17.872311 4.149931 -8.205402 7.525098 0.000000 0.000000 0.000000 2.186589 14.885358 -11.848074 23.342565 -34.461070 7.331257 -22.271035 17.445939 -45.484066 0.000000 0.000000 0.000000 -7.125000 0.000000 0.000000 -72.300617 61.112997 39.287178 0.000000 0.000000 0.000000 -5.746900 17.379919 25.835565 -19.434508 -29.954679 -5.246286 -17.945473 -15.289084 -30.616608 0.000000 0.000000 0.000000 7.125000 0.000000 0.000000 7.618462 -1.655259 7.904625
2.563006 16.948027 31.459099 171.026551 -57.074555 -159.836297 0.000000 0.000000 0.000000 -31.994158 -23.331498 3.927714 0.209683 2.946511 8.130017 0.057641 11.722648 -17.451065 0.418778 4.153711 11.509418 0.000000 0.000000 0.000000 11.989193 26.198890 -31.921489 -2.664324 -10.130605 29.400831 0.726462 -25.488940 -31.378069 -3.789328 -11.872715 35.285895 -3.771578 -0.760860 -5.770752 0.480077 -1.098789 -5.349136 2.571519 -0.524149 -2.216737 -8.380188 -10.429228 -1.288427 13.639353 -17.489753 17.460071 4.327069 -8.495432 7.501268 0.000000 0.000000 0.000000 1.199774 15.353503 -13.841594 23.571098 -34.707307 7.460966 -6.310274 24.743421 -40.161181 0.000000 0.000000 0.000000 -7.125000 0.000000 0.000000 -50.993457 62.761895 25.300209 0.000000 0.000000 0.000000 -6.271366 17.943552 26.369126 -17.749015 -27.834607 -4.431437 -18.186099 -15.283503 -29.459235 0.000000 0.000000 0.000000 7.125000 0.000000 0.000000 7.350454 -0.530148 7.479659
1.908463 16.857617 30.844684 169.276548 -59.533626 -157.448791 0.000000 0.000000 0.000000 -31.612583 -18.807873 9.397710 0.000000 0.000000 0.000000 -0.010710 9.141908 -12.838323 0.042757 1.334732 3.670366 0.000000 0.000000 0.000000 -2.610164 54.242932 -30.458754 -1.808986 -8.456257 24.108783 -15.836577 -9.978258 -79.363310 -9.673723 -17.222231 58.392180 -3.249738 -1.239449 -6.435948 -0.461582 -1.792684 -5.752416 1.270092 -0.918693 -2.258977 -8.110196 -10.729553 -0.947186 14.194489 -18.004599 16.987143 4.429403 -8.731019 7.380959 0.000000 0.000000 0.000000 2.553181 16.585077 -16.011110 24.489617 -35.676874 7.990742 -5.878894 23.095540 -41.114745 0.000000 0.000000 0.000000 -7.125000 0.000000 0.000000 -52.009882 63.500884 26.824683 0.000000 0.000000 0.000000 -5.297434 18.679899 26.563009 -15.444752 -24.761944 -3.410110 -17.578417 -14.628538 -29.364879 0.000000 0.000000 0.000000 7.125000 0.000000 0.000000 7.693856 -0.327848 7.808434
1.159292 16.762572 30.123485 167.215137 -60.888036 -156.044573 0.000000 0.000000 0.000000 -31.349875 -14.108951 11.932169 0.000144 0.040665 0.111714 0.168171 4.683896 -10.889552 0.039644 -1.285768 -3.535498 0.000000 0.000000 0.000000 6.863657 36.137156 -29.655727 -2.041445 -8.951797 25.644762 -5.711598 -21.764173 -55.088407 -7.954480 -16.083890 52.395676 -4.752523 -1.778186 -6.518050 0.175668 -2.442182 -5.907202 2.736366 -1.181977 -2.272628 -9.320454 -10.917242 -0.436009 13.601656 -17.907227 16.407707 4.472266 -8.794256 7.143093 0.000000 0.000000 0.000000 0.468471 17.182580 -14.681541 23.771892 -34.921735 7.575676 -7.234214 22.788249 -43.201710 0.000000 0.000000 0.000000 -7.125000 0.000000 0.000000 -56.995719 64.194247 31.578045 0.000000 0.000000 0.000000 -6.996098 19.838276 26.013080 -14.305696 -23.170064 -2.947320 -18.579764 -13.512661 -28.704672 0.000000 0.000000 0.000000 7.125000 0.000000 0.000000 7.039156 0.163731 7.072302
